<mxfile host="Electron" agent="Mozilla/5.0 (Windows NT 10.0; Win64; x64) AppleWebKit/537.36 (KHTML, like Gecko) draw.io/26.2.15 Chrome/134.0.6998.205 Electron/35.2.1 Safari/537.36" version="26.2.15">
  <diagram name="Page-1" id="ei3Pbd9yajHXzeKCMTXe">
    <mxGraphModel dx="925" dy="607" grid="1" gridSize="10" guides="1" tooltips="1" connect="1" arrows="1" fold="1" page="1" pageScale="1" pageWidth="850" pageHeight="1100" math="0" shadow="0">
      <root>
        <mxCell id="0" />
        <mxCell id="1" parent="0" />
        <mxCell id="joMcNf0QP5WH5S8smBif-1" value="" style="rounded=0;whiteSpace=wrap;html=1;" parent="1" vertex="1">
          <mxGeometry x="160" y="390" width="460" height="580" as="geometry" />
        </mxCell>
        <mxCell id="joMcNf0QP5WH5S8smBif-2" value="Show Map Legend" style="shape=ellipse;html=1;dashed=0;whiteSpace=wrap;perimeter=ellipsePerimeter;fillColor=#dae8fc;strokeColor=#6c8ebf;" parent="1" vertex="1">
          <mxGeometry x="460" y="410" width="120" height="50" as="geometry" />
        </mxCell>
        <mxCell id="eGUxLaMqgWZ94obaaw47-5" style="edgeStyle=orthogonalEdgeStyle;rounded=0;orthogonalLoop=1;jettySize=auto;html=1;entryX=0;entryY=0.5;entryDx=0;entryDy=0;dashed=1;" parent="1" source="joMcNf0QP5WH5S8smBif-3" target="joMcNf0QP5WH5S8smBif-2" edge="1">
          <mxGeometry relative="1" as="geometry" />
        </mxCell>
        <mxCell id="eGUxLaMqgWZ94obaaw47-6" value="&amp;lt;&amp;lt;extend&amp;gt;&amp;gt;" style="edgeLabel;html=1;align=center;verticalAlign=middle;resizable=0;points=[];" parent="eGUxLaMqgWZ94obaaw47-5" vertex="1" connectable="0">
          <mxGeometry x="-0.2205" y="-3" relative="1" as="geometry">
            <mxPoint x="10" y="12" as="offset" />
          </mxGeometry>
        </mxCell>
        <mxCell id="joMcNf0QP5WH5S8smBif-3" value="Toggle Map Layer" style="shape=ellipse;html=1;dashed=0;whiteSpace=wrap;perimeter=ellipsePerimeter;fillColor=#dae8fc;strokeColor=#6c8ebf;" parent="1" vertex="1">
          <mxGeometry x="200" y="410" width="120" height="50" as="geometry" />
        </mxCell>
        <mxCell id="joMcNf0QP5WH5S8smBif-5" value="Select Map Date" style="shape=ellipse;html=1;dashed=0;whiteSpace=wrap;perimeter=ellipsePerimeter;fillColor=#dae8fc;strokeColor=#6c8ebf;" parent="1" vertex="1">
          <mxGeometry x="460" y="820" width="120" height="50" as="geometry" />
        </mxCell>
        <mxCell id="joMcNf0QP5WH5S8smBif-6" value="Change Base Map Layer" style="shape=ellipse;html=1;dashed=0;whiteSpace=wrap;perimeter=ellipsePerimeter;fillColor=#dae8fc;strokeColor=#6c8ebf;" parent="1" vertex="1">
          <mxGeometry x="200" y="890" width="120" height="50" as="geometry" />
        </mxCell>
        <mxCell id="eGUxLaMqgWZ94obaaw47-16" style="edgeStyle=orthogonalEdgeStyle;rounded=0;orthogonalLoop=1;jettySize=auto;html=1;exitX=1;exitY=0.5;exitDx=0;exitDy=0;entryX=0;entryY=0.5;entryDx=0;entryDy=0;dashed=1;" parent="1" source="joMcNf0QP5WH5S8smBif-7" target="eGUxLaMqgWZ94obaaw47-4" edge="1">
          <mxGeometry relative="1" as="geometry" />
        </mxCell>
        <mxCell id="eGUxLaMqgWZ94obaaw47-17" value="&amp;lt;&amp;lt;include&amp;gt;&amp;gt;" style="edgeLabel;html=1;align=center;verticalAlign=middle;resizable=0;points=[];" parent="eGUxLaMqgWZ94obaaw47-16" vertex="1" connectable="0">
          <mxGeometry x="-0.125" y="4" relative="1" as="geometry">
            <mxPoint y="19" as="offset" />
          </mxGeometry>
        </mxCell>
        <mxCell id="joMcNf0QP5WH5S8smBif-7" value="Center on User Location" style="shape=ellipse;html=1;dashed=0;whiteSpace=wrap;perimeter=ellipsePerimeter;fillColor=#dae8fc;strokeColor=#6c8ebf;" parent="1" vertex="1">
          <mxGeometry x="220" y="490" width="120" height="50" as="geometry" />
        </mxCell>
        <mxCell id="joMcNf0QP5WH5S8smBif-8" value="Zoom In/Out" style="shape=ellipse;html=1;dashed=0;whiteSpace=wrap;perimeter=ellipsePerimeter;fillColor=#dae8fc;strokeColor=#6c8ebf;" parent="1" vertex="1">
          <mxGeometry x="230" y="570" width="120" height="50" as="geometry" />
        </mxCell>
        <mxCell id="eGUxLaMqgWZ94obaaw47-42" style="edgeStyle=orthogonalEdgeStyle;rounded=0;orthogonalLoop=1;jettySize=auto;html=1;startArrow=none;startFill=0;dashed=1;" parent="1" source="joMcNf0QP5WH5S8smBif-9" target="eGUxLaMqgWZ94obaaw47-40" edge="1">
          <mxGeometry relative="1" as="geometry">
            <Array as="points">
              <mxPoint x="720" y="759" />
              <mxPoint x="720" y="599" />
            </Array>
          </mxGeometry>
        </mxCell>
        <mxCell id="eGUxLaMqgWZ94obaaw47-45" value="&amp;lt;&amp;lt;include&amp;gt;&amp;gt;" style="edgeLabel;html=1;align=center;verticalAlign=middle;resizable=0;points=[];" parent="eGUxLaMqgWZ94obaaw47-42" vertex="1" connectable="0">
          <mxGeometry x="-0.0898" y="1" relative="1" as="geometry">
            <mxPoint as="offset" />
          </mxGeometry>
        </mxCell>
        <mxCell id="joMcNf0QP5WH5S8smBif-9" value="Backend Server" style="sketch=0;outlineConnect=0;fontColor=#232F3E;gradientColor=none;fillColor=#232F3D;strokeColor=none;dashed=0;verticalLabelPosition=bottom;verticalAlign=top;align=center;html=1;fontSize=12;fontStyle=0;aspect=fixed;pointerEvents=1;shape=mxgraph.aws4.traditional_server;" parent="1" vertex="1">
          <mxGeometry x="650" y="720" width="45" height="78" as="geometry" />
        </mxCell>
        <mxCell id="eGUxLaMqgWZ94obaaw47-8" style="rounded=0;orthogonalLoop=1;jettySize=auto;html=1;exitX=1;exitY=0.3333333333333333;exitDx=0;exitDy=0;exitPerimeter=0;entryX=0;entryY=0.5;entryDx=0;entryDy=0;endArrow=none;startFill=0;" parent="1" source="eGUxLaMqgWZ94obaaw47-1" target="joMcNf0QP5WH5S8smBif-3" edge="1">
          <mxGeometry relative="1" as="geometry">
            <mxPoint x="120" y="590" as="targetPoint" />
          </mxGeometry>
        </mxCell>
        <mxCell id="eGUxLaMqgWZ94obaaw47-9" style="rounded=0;orthogonalLoop=1;jettySize=auto;html=1;exitX=1;exitY=0.3333333333333333;exitDx=0;exitDy=0;exitPerimeter=0;entryX=0;entryY=0.5;entryDx=0;entryDy=0;endArrow=none;startFill=0;" parent="1" source="eGUxLaMqgWZ94obaaw47-1" target="joMcNf0QP5WH5S8smBif-8" edge="1">
          <mxGeometry relative="1" as="geometry" />
        </mxCell>
        <mxCell id="eGUxLaMqgWZ94obaaw47-11" style="rounded=0;orthogonalLoop=1;jettySize=auto;html=1;exitX=1;exitY=0.3333333333333333;exitDx=0;exitDy=0;exitPerimeter=0;entryX=0;entryY=0.5;entryDx=0;entryDy=0;endArrow=none;startFill=0;" parent="1" source="eGUxLaMqgWZ94obaaw47-1" target="joMcNf0QP5WH5S8smBif-5" edge="1">
          <mxGeometry relative="1" as="geometry" />
        </mxCell>
        <mxCell id="eGUxLaMqgWZ94obaaw47-12" style="rounded=0;orthogonalLoop=1;jettySize=auto;html=1;exitX=1;exitY=0.3333333333333333;exitDx=0;exitDy=0;exitPerimeter=0;endArrow=none;startFill=0;" parent="1" source="eGUxLaMqgWZ94obaaw47-1" target="joMcNf0QP5WH5S8smBif-7" edge="1">
          <mxGeometry relative="1" as="geometry" />
        </mxCell>
        <mxCell id="eGUxLaMqgWZ94obaaw47-1" value="User" style="shape=umlActor;verticalLabelPosition=bottom;verticalAlign=top;html=1;outlineConnect=0;" parent="1" vertex="1">
          <mxGeometry x="50" y="651" width="30" height="60" as="geometry" />
        </mxCell>
        <mxCell id="eGUxLaMqgWZ94obaaw47-4" value="Grant Permission" style="shape=ellipse;html=1;dashed=0;whiteSpace=wrap;perimeter=ellipsePerimeter;fillColor=#dae8fc;strokeColor=#6c8ebf;" parent="1" vertex="1">
          <mxGeometry x="450" y="490" width="120" height="50" as="geometry" />
        </mxCell>
        <mxCell id="eGUxLaMqgWZ94obaaw47-21" value="Pan/Drag Map" style="shape=ellipse;html=1;dashed=0;whiteSpace=wrap;perimeter=ellipsePerimeter;fillColor=#dae8fc;strokeColor=#6c8ebf;" parent="1" vertex="1">
          <mxGeometry x="390" y="601" width="120" height="50" as="geometry" />
        </mxCell>
        <mxCell id="eGUxLaMqgWZ94obaaw47-22" style="rounded=0;orthogonalLoop=1;jettySize=auto;html=1;entryX=0;entryY=0.5;entryDx=0;entryDy=0;endArrow=none;startFill=0;" parent="1" target="eGUxLaMqgWZ94obaaw47-21" edge="1">
          <mxGeometry relative="1" as="geometry">
            <mxPoint x="80" y="670" as="sourcePoint" />
          </mxGeometry>
        </mxCell>
        <mxCell id="eGUxLaMqgWZ94obaaw47-37" value="Query a Map Layer" style="shape=ellipse;html=1;dashed=0;whiteSpace=wrap;perimeter=ellipsePerimeter;fillColor=#dae8fc;strokeColor=#6c8ebf;" parent="1" vertex="1">
          <mxGeometry x="470" y="748" width="120" height="50" as="geometry" />
        </mxCell>
        <mxCell id="eGUxLaMqgWZ94obaaw47-38" style="rounded=0;orthogonalLoop=1;jettySize=auto;html=1;entryX=0;entryY=0.5;entryDx=0;entryDy=0;endArrow=none;startFill=0;" parent="1" target="eGUxLaMqgWZ94obaaw47-37" edge="1">
          <mxGeometry relative="1" as="geometry">
            <mxPoint x="80" y="670" as="sourcePoint" />
          </mxGeometry>
        </mxCell>
        <mxCell id="eGUxLaMqgWZ94obaaw47-40" value="Map Server" style="sketch=0;outlineConnect=0;fontColor=#232F3E;gradientColor=none;fillColor=#232F3D;strokeColor=none;dashed=0;verticalLabelPosition=bottom;verticalAlign=top;align=center;html=1;fontSize=12;fontStyle=0;aspect=fixed;pointerEvents=1;shape=mxgraph.aws4.traditional_server;" parent="1" vertex="1">
          <mxGeometry x="650" y="560" width="45" height="78" as="geometry" />
        </mxCell>
        <mxCell id="j0WgY-sIxBLJsHCLpisl-2" style="rounded=0;orthogonalLoop=1;jettySize=auto;html=1;endArrow=none;startFill=0;" edge="1" parent="1" source="j0WgY-sIxBLJsHCLpisl-1">
          <mxGeometry relative="1" as="geometry">
            <mxPoint x="80" y="670" as="targetPoint" />
          </mxGeometry>
        </mxCell>
        <mxCell id="j0WgY-sIxBLJsHCLpisl-1" value="Configure&amp;nbsp;&lt;div&gt;Threshold Values&lt;/div&gt;" style="shape=ellipse;html=1;dashed=0;whiteSpace=wrap;perimeter=ellipsePerimeter;fillColor=#dae8fc;strokeColor=#6c8ebf;" vertex="1" parent="1">
          <mxGeometry x="370" y="880" width="120" height="50" as="geometry" />
        </mxCell>
        <mxCell id="j0WgY-sIxBLJsHCLpisl-3" style="rounded=0;orthogonalLoop=1;jettySize=auto;html=1;entryX=1;entryY=0.3333333333333333;entryDx=0;entryDy=0;entryPerimeter=0;endArrow=none;startFill=0;" edge="1" parent="1" source="joMcNf0QP5WH5S8smBif-6" target="eGUxLaMqgWZ94obaaw47-1">
          <mxGeometry relative="1" as="geometry" />
        </mxCell>
      </root>
    </mxGraphModel>
  </diagram>
</mxfile>
